HIERARCHY
ROOT Hips
{
	OFFSET 0.00000 0.00000 0.00000
	CHANNELS 6 Xposition Yposition Zposition Zrotation Yrotation Xrotation 
	JOINT LHipJoint
	{
		OFFSET 0 0 0
		CHANNELS 3 Zrotation Yrotation Xrotation
		JOINT LeftHip
		{
			OFFSET 1.58895 -1.83665 0.71753
			CHANNELS 3 Zrotation Yrotation Xrotation
			JOINT LeftKnee
			{
				OFFSET 2.50528 -6.88321 0.00000
				CHANNELS 3 Zrotation Yrotation Xrotation
				JOINT LeftAnkle
				{
					OFFSET 2.63244 -7.23257 0.00000
					CHANNELS 3 Zrotation Yrotation Xrotation
					JOINT LeftToe
					{
						OFFSET 0.23691 -0.65090 1.72750
						CHANNELS 3 Zrotation Yrotation Xrotation
						End Site
						{
							OFFSET 0.00000 -0.00000 0.92561
						}
					}
				}
			}
		}
	}
	JOINT RHipJoint
	{
		OFFSET 0 0 0
		CHANNELS 3 Zrotation Yrotation Xrotation
		JOINT RightHip
		{
			OFFSET -1.51435 -1.83665 0.71753
			CHANNELS 3 Zrotation Yrotation Xrotation
			JOINT RightKnee
			{
				OFFSET -2.54551 -6.99375 0.00000
				CHANNELS 3 Zrotation Yrotation Xrotation
				JOINT RightAnkle
				{
					OFFSET -2.66027 -7.30903 0.00000
					CHANNELS 3 Zrotation Yrotation Xrotation
					JOINT RightToe
					{
						OFFSET -0.22981 -0.63138 2.03959
						CHANNELS 3 Zrotation Yrotation Xrotation
						End Site
						{
							OFFSET -0.00000 -0.00000 1.07060
						}
					}
				}
			}
		}
	}
	JOINT lowerback
	{
		OFFSET 0 0 0
		CHANNELS 3 Zrotation Yrotation Xrotation
		JOINT Chest
		{
			OFFSET -0.02651 1.86275 -0.11152
			CHANNELS 3 Zrotation Yrotation Xrotation
			JOINT Chest2
			{
				OFFSET 0.01019 1.86224 0.04087
				CHANNELS 3 Zrotation Yrotation Xrotation
				JOINT lowerneck
				{
					OFFSET 0 0 0
					CHANNELS 3 Zrotation Yrotation Xrotation
					JOINT Neck
					{
						OFFSET -0.01926 1.80512 0.08867
						CHANNELS 3 Zrotation Yrotation Xrotation
						JOINT Head
						{
							OFFSET 0.05516 1.76451 -0.38475
							CHANNELS 3 Zrotation Yrotation Xrotation
							End Site
							{
								OFFSET 0.01592 1.82587 -0.14001
							}
						}
					}
				}
				JOINT LeftCollar
				{
					OFFSET 0 0 0
					CHANNELS 3 Zrotation Yrotation Xrotation
					JOINT LeftShoulder
					{
						OFFSET 3.47116 1.51376 0.14491
CHANNELS 3 Zrotation Xrotation Yrotation
						JOINT LeftElbow
						{
OFFSET 0 -4.780950 0.000000
CHANNELS 3 Zrotation Xrotation Yrotation
							JOINT LeftWrist
							{
OFFSET 0 -3.586150 -0.000000
CHANNELS 3 Zrotation Xrotation Yrotation
								JOINT lhand
								{
									OFFSET 0 0 0
CHANNELS 3 Zrotation Xrotation Yrotation
									JOINT LFingers
									{
OFFSET 0 -0.659810 0.000000
CHANNELS 3 Zrotation Xrotation Yrotation
										End Site
										{
OFFSET 0 -0.531960 0.000000
										}
									}
								}
								JOINT LThumb
								{
OFFSET 0 0.000000 0.000000
CHANNELS 3 Zrotation Xrotation Yrotation
									End Site
									{
OFFSET 0 -0.540080 0.540080
									}
								}
							}
						}
					}
				}
				JOINT RightCollar
				{
					OFFSET 0 0 0
					CHANNELS 3 Zrotation Yrotation Xrotation
					JOINT RightShoulder
					{
						OFFSET -3.31725 1.61216 0.35156
CHANNELS 3 Zrotation Xrotation Yrotation
						JOINT RightElbow
						{
OFFSET 0 -4.489130 0.000000
CHANNELS 3 Zrotation Xrotation Yrotation
							JOINT RightWrist
							{
OFFSET 0 -3.705100 0.000000
CHANNELS 3 Zrotation Xrotation Yrotation
								JOINT rhand
								{
									OFFSET 0 0 0
CHANNELS 3 Zrotation Xrotation Yrotation
									JOINT RFingers
									{
OFFSET 0 -0.449140 0.000000
CHANNELS 3 Zrotation Xrotation Yrotation
										End Site
										{
OFFSET 0 -0.362110 0.000000
										}
									}
								}
								JOINT RThumb
								{
OFFSET 0 0.000000 0.000000
CHANNELS 3 Zrotation Xrotation Yrotation
									End Site
									{
OFFSET 0 -0.367630 0.367630
									}
								}
							}
						}
					}
				}
			}
		}
	}
}
MOTION
Frames: 9
Frame Time: 0.008333333333333333
-0.952600 18.682900 5.886800 -7.861700 -0.410700 2.549400 0.000000 0.000000 0.000000 -4.722400 -6.040100 -5.961800 1.784800 8.402700 23.944000 1.577600 1.921700 -24.492800 8.691400 -16.605000 -55.016800 0.000000 0.000000 0.000000 23.101900 -3.088100 5.765900 0.000000 -0.000000 0.000000 -0.904300 -3.492300 -19.550700 -0.011700 0.699600 -1.922700 7.302500 0.584000 2.754500 0.222600 1.080700 -1.460200 -3.921100 0.396000 -2.934200 0.434400 -1.494800 -6.461300 2.762800 -2.901000 26.762600 0.593000 -1.021800 9.518800 -0.000000 -0.000000 0.000000 1.319200 12.278800 -25.938100 21.869000 -32.828700 6.514700 3.860100 7.591500 27.187200 0.000000 0.000000 0.000000 -7.125000 0.000000 0.000000 -15.594100 3.581200 -15.172400 -0.000000 -0.000000 0.000000 2.449500 17.790600 22.632800 -23.808700 -34.961300 -7.596700 -1.238100 25.378800 34.299000 0.000000 0.000000 0.000000 7.125000 0.000000 -0.000000 36.579500 60.387500 -14.882500
-0.950100 18.684511 5.887216 -7.890065 -0.374530 2.607527 0.000000 0.000000 0.000000 -4.690043 -6.056356 -6.071985 1.793610 8.422215 24.004098 1.575006 1.888703 -24.459948 8.673193 -16.592736 -54.953004 0.000000 0.000000 0.000000 23.124564 -3.094162 5.689874 0.000000 0.000000 0.000000 -0.901432 -3.500671 -19.527670 -0.012526 0.721155 -1.981842 7.356883 0.608393 2.788850 0.152932 1.114403 -1.411890 -4.025788 0.413688 -2.897141 0.561228 -1.527834 -6.405236 2.702824 -2.946162 26.626108 0.546206 -1.039146 9.457396 0.000000 0.000000 0.000000 1.439433 12.200847 -25.911644 21.847004 -32.803646 6.502726 3.931294 7.554455 27.085253 0.000000 0.000000 0.000000 -7.125000 0.000000 0.000000 -15.552263 3.673101 -15.101047 0.000000 0.000000 0.000000 2.313706 17.539589 23.246874 -23.543449 -34.677728 -7.445262 -1.519797 24.888978 34.389292 0.000000 0.000000 0.000000 7.125000 0.000000 0.000000 36.401726 60.527088 -14.920854
-0.950132 18.685794 5.883448 -7.959624 -0.285816 2.692023 0.000000 0.000000 0.000000 -4.574877 -6.015497 -6.276013 1.802305 8.441519 24.063405 1.565479 1.826666 -24.362051 8.702734 -16.612575 -55.056260 0.000000 0.000000 0.000000 23.209250 -3.134734 5.565301 0.000000 0.000000 0.000000 -0.899542 -3.506295 -19.512163 -0.013053 0.735755 -2.021918 7.306460 0.641060 2.868725 0.163509 1.161711 -1.381211 -3.989932 0.438813 -2.905331 0.652334 -1.569892 -6.468716 2.564618 -2.983991 26.607308 0.478507 -1.061498 9.459621 0.000000 0.000000 0.000000 1.520664 12.170193 -26.079329 21.889731 -32.852173 6.525926 3.954367 7.445038 26.933591 0.000000 0.000000 0.000000 -7.125000 0.000000 0.000000 -15.538422 3.817108 -15.043576 0.000000 0.000000 0.000000 2.234413 17.468111 23.443816 -23.520578 -34.653188 -7.432225 -1.609082 24.721812 34.234982 0.000000 0.000000 0.000000 7.125000 0.000000 0.000000 36.150633 60.424616 -14.712211
-0.948153 18.688816 5.877995 -8.015129 -0.245732 2.776127 0.000000 0.000000 0.000000 -4.506016 -6.108522 -6.414955 1.810415 8.459451 24.118647 1.566243 1.825729 -24.367655 8.699018 -16.610124 -55.043384 0.000000 0.000000 0.000000 23.265544 -3.127560 5.449846 0.000000 0.000000 0.000000 -0.901563 -3.466131 -19.509952 -0.005905 0.496693 -1.364688 7.291032 0.670819 2.976296 0.158119 1.208533 -1.349930 -3.990807 0.462383 -2.927941 0.665473 -1.594430 -6.473013 2.509693 -3.005305 26.604067 0.455186 -1.075578 9.458357 0.000000 0.000000 0.000000 1.595579 12.122237 -26.205662 21.908591 -32.873548 6.536153 3.923559 7.284195 27.091357 0.000000 0.000000 0.000000 -7.125000 0.000000 0.000000 -15.556836 3.668023 -15.107326 0.000000 0.000000 0.000000 2.258126 17.469306 23.450069 -23.611819 -34.751067 -7.484123 -1.732749 24.808251 34.084530 0.000000 0.000000 0.000000 7.125000 0.000000 0.000000 35.871623 60.333098 -14.501446
-0.944727 18.689726 5.874979 -8.052636 -0.184659 2.860305 0.000000 0.000000 0.000000 -4.461198 -6.145454 -6.548599 1.814721 8.469026 24.148061 1.559568 1.843540 -24.324601 8.707274 -16.615627 -55.072134 0.000000 0.000000 0.000000 23.304980 -3.142052 5.330622 0.000000 0.000000 0.000000 -0.901069 -3.492751 -19.519733 -0.007589 0.562156 -1.544753 7.311791 0.674966 3.081673 0.121554 1.222735 -1.344056 -4.043178 0.466954 -2.978557 0.564008 -1.598138 -6.403862 2.633709 -3.021872 26.566113 0.514439 -1.081361 9.435486 0.000000 0.000000 0.000000 1.630495 12.137845 -26.218825 21.944187 -32.913883 6.555496 3.988881 7.167772 27.023521 0.000000 0.000000 0.000000 -7.125000 0.000000 0.000000 -15.518544 3.727633 -15.049403 0.000000 0.000000 0.000000 2.303315 17.426643 23.440818 -23.596893 -34.735045 -7.475598 -1.902144 24.866849 33.883269 0.000000 0.000000 0.000000 7.125000 0.000000 0.000000 35.496541 60.210763 -14.221080
-0.942327 18.692341 5.872453 -7.983081 -0.111598 2.921903 0.000000 0.000000 0.000000 -4.542730 -6.269163 -6.614822 1.815190 8.470074 24.151170 1.560479 1.880717 -24.347333 8.704907 -16.614038 -55.063827 0.000000 0.000000 0.000000 23.224030 -3.185214 5.235546 0.000000 0.000000 0.000000 -0.899595 -3.491977 -19.505019 -0.006801 0.531621 -1.460740 7.202678 0.637592 3.181548 0.048947 1.173526 -1.321027 -4.056730 0.443078 -3.017243 0.546566 -1.550714 -6.443862 2.695192 -2.972708 26.694670 0.543380 -1.051417 9.489680 0.000000 0.000000 0.000000 1.686524 12.117707 -26.088320 21.938074 -32.906963 6.552150 3.865638 7.214729 26.891877 0.000000 0.000000 0.000000 -7.125000 0.000000 0.000000 -15.590118 3.864878 -15.083456 0.000000 0.000000 0.000000 2.298297 17.405905 23.711511 -23.672056 -34.815535 -7.518480 -1.840013 24.657425 34.182595 0.000000 0.000000 0.000000 7.125000 0.000000 0.000000 35.870260 60.437561 -14.591286
-0.940658 18.693826 5.867533 -7.981680 -0.043636 2.970849 0.000000 0.000000 0.000000 -4.540794 -6.339797 -6.684047 1.814184 8.467780 24.144165 1.554328 1.891063 -24.304862 8.698852 -16.609989 -55.042757 0.000000 0.000000 0.000000 23.222564 -3.224117 5.151738 0.000000 0.000000 0.000000 -0.896701 -3.488651 -19.475283 -0.005831 0.492151 -1.352348 7.073219 0.621886 3.350576 0.065870 1.161006 -1.315413 -3.968772 0.436353 -3.110610 0.303669 -1.565778 -6.351659 2.902811 -3.004835 26.680964 0.654570 -1.069527 9.474526 0.000000 0.000000 0.000000 1.644448 12.138192 -26.112131 22.004054 -32.981646 6.588100 3.761080 7.079731 26.779905 0.000000 0.000000 0.000000 -7.125000 0.000000 0.000000 -15.651138 3.981583 -15.112232 0.000000 0.000000 0.000000 2.237428 17.388826 23.765468 -23.706967 -34.852839 -7.538456 -1.726788 24.500170 34.056092 0.000000 0.000000 0.000000 7.125000 0.000000 0.000000 35.847748 60.308774 -14.469195
-0.940394 18.696031 5.860208 -7.946299 -0.004600 3.047449 0.000000 0.000000 0.000000 -4.563892 -6.352867 -6.806508 1.812043 8.463112 24.129816 1.545309 1.899870 -24.240521 8.706174 -16.614908 -55.068395 0.000000 0.000000 0.000000 23.192611 -3.224021 5.044233 0.000000 0.000000 0.000000 -0.895521 -3.503623 -19.471885 -0.006711 0.527077 -1.448447 6.957695 0.637594 3.525952 -0.000909 1.187899 -1.292004 -3.978012 0.449434 -3.182385 0.331181 -1.613402 -6.547554 2.882182 -3.081537 26.886168 0.633746 -1.099340 9.586025 0.000000 0.000000 0.000000 1.713701 12.066413 -26.186652 22.034150 -33.015619 6.604472 4.738544 6.483918 26.576052 0.000000 0.000000 0.000000 -7.125000 0.000000 0.000000 -15.077294 4.092856 -14.482946 0.000000 0.000000 0.000000 2.377846 17.337484 23.662363 -23.766937 -34.916831 -7.572736 -1.800420 24.543994 34.070728 0.000000 0.000000 0.000000 7.125000 0.000000 0.000000 35.791143 60.338106 -14.468003
-0.941084 18.698089 5.853770 -7.943640 -0.049274 3.128736 0.000000 0.000000 0.000000 -4.555096 -6.343036 -6.911683 1.811016 8.460916 24.122948 1.541926 1.919676 -24.222775 8.702389 -16.612359 -55.055076 0.000000 0.000000 0.000000 23.199423 -3.138305 4.951769 0.000000 0.000000 0.000000 -0.891644 -3.538146 -19.453073 -0.006289 0.511328 -1.404925 6.875762 0.673476 3.686244 -0.035875 1.243303 -1.285431 -3.974635 0.475684 -3.260017 0.352274 -1.610863 -6.407868 2.835420 -3.059673 26.723921 0.617034 -1.095760 9.499595 0.000000 0.000000 0.000000 1.785333 12.077629 -26.362806 22.071118 -33.057363 6.624569 5.498335 5.909590 26.746706 0.000000 0.000000 0.000000 -7.125000 0.000000 0.000000 -14.632004 3.858937 -14.089805 0.000000 0.000000 0.000000 2.416934 17.350781 23.722527 -23.865509 -35.021754 -7.629220 -1.776617 24.436569 34.076409 0.000000 0.000000 0.000000 7.125000 0.000000 0.000000 35.820299 60.336890 -14.480580
